<svg width="93" height="92" viewBox="0 0 93 92" fill="none" xmlns="http://www.w3.org/2000/svg">
<path d="M91 46.5C91 71.629 70.8528 92 46 92C21.1472 92 1 71.629 1 46.5C1 21.371 21.1472 1 46 1C70.8528 1 91 21.371 91 46.5Z" fill="#CC0000"/>
<path d="M93 45C93 69.8528 72.8528 90 48 90C23.1472 90 3 69.8528 3 45C3 20.1472 23.1472 0 48 0C72.8528 0 93 20.1472 93 45Z" fill="#FF0000"/>
<path fill-rule="evenodd" clip-rule="evenodd" d="M48 90C72.8528 90 93 69.8528 93 45C93 20.1472 72.8528 0 48 0C23.1472 0 3 20.1472 3 45C3 69.8528 23.1472 90 48 90ZM47.5 87C70.9721 87 90 67.9721 90 44.5C90 21.0279 70.9721 2 47.5 2C24.0279 2 5 21.0279 5 44.5C5 67.9721 24.0279 87 47.5 87Z" fill="#FC0000"/>
<path d="M26.458 46.2959C25.0107 45.8799 23.9561 45.3701 23.2939 44.7666C22.6377 44.1572 22.3096 43.4072 22.3096 42.5166C22.3096 41.5088 22.7109 40.6768 23.5137 40.0205C24.3223 39.3584 25.3711 39.0273 26.6602 39.0273C27.5391 39.0273 28.3213 39.1973 29.0068 39.5371C29.6982 39.877 30.2314 40.3457 30.6064 40.9434C30.9873 41.541 31.1777 42.1943 31.1777 42.9033H29.4814C29.4814 42.1299 29.2354 41.5234 28.7432 41.084C28.251 40.6387 27.5566 40.416 26.6602 40.416C25.8281 40.416 25.1777 40.6006 24.709 40.9697C24.2461 41.333 24.0146 41.8398 24.0146 42.4902C24.0146 43.0117 24.2344 43.4541 24.6738 43.8174C25.1191 44.1748 25.8721 44.5029 26.9326 44.8018C27.999 45.1006 28.8311 45.4316 29.4287 45.7949C30.0322 46.1523 30.4775 46.5713 30.7646 47.0518C31.0576 47.5322 31.2041 48.0977 31.2041 48.748C31.2041 49.7852 30.7998 50.6172 29.9912 51.2441C29.1826 51.8652 28.1016 52.1758 26.748 52.1758C25.8691 52.1758 25.0488 52.0088 24.2871 51.6748C23.5254 51.335 22.9365 50.8721 22.5205 50.2861C22.1104 49.7002 21.9053 49.0352 21.9053 48.291H23.6016C23.6016 49.0645 23.8857 49.6768 24.4541 50.1279C25.0283 50.5732 25.793 50.7959 26.748 50.7959C27.6387 50.7959 28.3213 50.6143 28.7959 50.251C29.2705 49.8877 29.5078 49.3926 29.5078 48.7656C29.5078 48.1387 29.2881 47.6553 28.8486 47.3154C28.4092 46.9697 27.6123 46.6299 26.458 46.2959ZM42.2168 40.5918H38.1035V52H36.4248V40.5918H32.3203V39.2031H42.2168V40.5918ZM50.4785 48.6602H45.1172L43.9131 52H42.1729L47.0596 39.2031H48.5361L53.4316 52H51.7002L50.4785 48.6602ZM45.627 47.2715H49.9775L47.7979 41.2861L45.627 47.2715ZM59.8477 46.8232H56.8418V52H55.1455V39.2031H59.3818C60.8232 39.2031 61.9307 39.5312 62.7041 40.1875C63.4834 40.8438 63.873 41.7988 63.873 43.0527C63.873 43.8496 63.6562 44.5439 63.2227 45.1357C62.7949 45.7275 62.1973 46.1699 61.4297 46.4629L64.4355 51.8945V52H62.625L59.8477 46.8232ZM56.8418 45.4434H59.4346C60.2725 45.4434 60.9375 45.2266 61.4297 44.793C61.9277 44.3594 62.1768 43.7793 62.1768 43.0527C62.1768 42.2617 61.9395 41.6553 61.4648 41.2334C60.9961 40.8115 60.3164 40.5977 59.4258 40.5918H56.8418V45.4434ZM74.3848 40.5918H70.2715V52H68.5928V40.5918H64.4883V39.2031H74.3848V40.5918Z" fill="black"/>
</svg>
