<svg width="93" height="92" viewBox="0 0 93 92" fill="none" xmlns="http://www.w3.org/2000/svg">
<path d="M90 46.5C90 71.629 69.8528 92 45 92C20.1472 92 0 71.629 0 46.5C0 21.371 20.1472 1 45 1C69.8528 1 90 21.371 90 46.5Z" fill="#CC0000"/>
<path d="M91 46C91 70.8528 70.8528 91 46 91C21.1472 91 1 70.8528 1 46C1 21.1472 21.1472 1 46 1C70.8528 1 91 21.1472 91 46Z" fill="#FF0000"/>
<path fill-rule="evenodd" clip-rule="evenodd" d="M46 90C70.8528 90 91 69.8528 91 45C91 20.1472 70.8528 0 46 0C21.1472 0 1 20.1472 1 45C1 69.8528 21.1472 90 46 90ZM45.5 87C68.9721 87 88 67.9721 88 44.5C88 21.0279 68.9721 2 45.5 2C22.0279 2 3 21.0279 3 44.5C3 67.9721 22.0279 87 45.5 87Z" fill="#FC0000"/>
<path d="M24.458 46.2959C23.0107 45.8799 21.9561 45.3701 21.2939 44.7666C20.6377 44.1572 20.3096 43.4072 20.3096 42.5166C20.3096 41.5088 20.7109 40.6768 21.5137 40.0205C22.3223 39.3584 23.3711 39.0273 24.6602 39.0273C25.5391 39.0273 26.3213 39.1973 27.0068 39.5371C27.6982 39.877 28.2314 40.3457 28.6064 40.9434C28.9873 41.541 29.1777 42.1943 29.1777 42.9033H27.4814C27.4814 42.1299 27.2354 41.5234 26.7432 41.084C26.251 40.6387 25.5566 40.416 24.6602 40.416C23.8281 40.416 23.1777 40.6006 22.709 40.9697C22.2461 41.333 22.0146 41.8398 22.0146 42.4902C22.0146 43.0117 22.2344 43.4541 22.6738 43.8174C23.1191 44.1748 23.8721 44.5029 24.9326 44.8018C25.999 45.1006 26.8311 45.4316 27.4287 45.7949C28.0322 46.1523 28.4775 46.5713 28.7646 47.0518C29.0576 47.5322 29.2041 48.0977 29.2041 48.748C29.2041 49.7852 28.7998 50.6172 27.9912 51.2441C27.1826 51.8652 26.1016 52.1758 24.748 52.1758C23.8691 52.1758 23.0488 52.0088 22.2871 51.6748C21.5254 51.335 20.9365 50.8721 20.5205 50.2861C20.1104 49.7002 19.9053 49.0352 19.9053 48.291H21.6016C21.6016 49.0645 21.8857 49.6768 22.4541 50.1279C23.0283 50.5732 23.793 50.7959 24.748 50.7959C25.6387 50.7959 26.3213 50.6143 26.7959 50.251C27.2705 49.8877 27.5078 49.3926 27.5078 48.7656C27.5078 48.1387 27.2881 47.6553 26.8486 47.3154C26.4092 46.9697 25.6123 46.6299 24.458 46.2959ZM40.2168 40.5918H36.1035V52H34.4248V40.5918H30.3203V39.2031H40.2168V40.5918ZM48.4785 48.6602H43.1172L41.9131 52H40.1729L45.0596 39.2031H46.5361L51.4316 52H49.7002L48.4785 48.6602ZM43.627 47.2715H47.9775L45.7979 41.2861L43.627 47.2715ZM57.8477 46.8232H54.8418V52H53.1455V39.2031H57.3818C58.8232 39.2031 59.9307 39.5312 60.7041 40.1875C61.4834 40.8438 61.873 41.7988 61.873 43.0527C61.873 43.8496 61.6562 44.5439 61.2227 45.1357C60.7949 45.7275 60.1973 46.1699 59.4297 46.4629L62.4355 51.8945V52H60.625L57.8477 46.8232ZM54.8418 45.4434H57.4346C58.2725 45.4434 58.9375 45.2266 59.4297 44.793C59.9277 44.3594 60.1768 43.7793 60.1768 43.0527C60.1768 42.2617 59.9395 41.6553 59.4648 41.2334C58.9961 40.8115 58.3164 40.5977 57.4258 40.5918H54.8418V45.4434ZM72.3848 40.5918H68.2715V52H66.5928V40.5918H62.4883V39.2031H72.3848V40.5918Z" fill="black"/>
</svg>
